<?xml version="1.0" standalone="no"?>
<!DOCTYPE svg PUBLIC "-//W3C//DTD SVG 20010904//EN"
 "http://www.w3.org/TR/2001/REC-SVG-20010904/DTD/svg10.dtd">
<svg version="1.0" xmlns="http://www.w3.org/2000/svg"
 width="787.000000pt" height="787.000000pt" viewBox="0 0 787.000000 787.000000"
 preserveAspectRatio="xMidYMid meet">
<metadata>
Created by potrace 1.11, written by Peter Selinger 2001-2013
</metadata>
<g transform="translate(0.000000,787.000000) scale(0.100000,-0.100000)"
fill="#000000" stroke="none">
<path d="M10 7235 c0 -598 1 -635 18 -636 9 0 280 -1 602 -2 l585 -2 0 -2775
0 -2775 635 0 635 0 2 2755 c1 1515 2 2765 3 2777 l0 22 597 1 c328 0 598 2
600 4 4 3 5 698 3 1159 l0 107 -1840 0 -1840 0 0 -635z"/>
<path d="M5490 5885 c-24 -64 -91 -231 -99 -250 -5 -11 -17 -40 -26 -65 -9
-25 -23 -58 -30 -75 -7 -16 -68 -169 -135 -340 -117 -295 -264 -668 -640
-1615 -360 -906 -587 -1479 -722 -1820 -77 -195 -144 -364 -148 -375 -5 -11
-55 -135 -110 -275 -55 -140 -105 -264 -109 -275 -5 -11 -19 -45 -31 -75 -11
-30 -25 -64 -30 -75 -4 -11 -36 -92 -71 -180 -34 -88 -70 -179 -80 -202 -11
-23 -19 -47 -19 -53 0 -5 -4 -18 -10 -28 -10 -18 -70 -169 -70 -177 0 -3 298
-4 661 -3 l661 3 100 260 c54 143 116 302 136 354 l37 94 741 0 c407 0 745 -3
751 -6 5 -4 18 -28 28 -54 9 -26 28 -75 40 -108 13 -33 44 -116 70 -185 26
-69 53 -138 60 -155 7 -16 28 -69 46 -118 l32 -87 663 0 664 0 -9 23 c-5 12
-32 80 -60 152 -28 72 -56 139 -61 150 -5 11 -23 56 -40 100 -17 44 -35 89
-40 100 -5 11 -73 182 -151 380 -221 561 -379 958 -388 980 -5 11 -59 146
-120 300 -61 154 -199 503 -307 775 -108 272 -266 671 -351 885 -85 215 -260
658 -389 985 -130 327 -240 604 -245 615 -5 11 -49 121 -98 245 -86 216 -90
224 -101 195z m268 -1075 c200 -505 496 -1251 615 -1550 67 -168 122 -307 122
-310 1 -3 9 -22 18 -44 9 -21 17 -40 17 -42 0 -2 92 -234 204 -516 112 -282
256 -646 321 -808 64 -162 173 -437 242 -610 69 -173 163 -412 210 -530 47
-118 87 -220 89 -225 6 -14 -942 -14 -954 0 -5 6 -14 26 -21 45 -7 19 -17 44
-21 55 -5 11 -23 58 -40 105 -17 47 -37 99 -44 115 -7 17 -43 111 -80 210
l-67 180 -867 -1 -867 -2 -61 -158 c-33 -88 -63 -166 -67 -174 -3 -8 -36 -96
-73 -195 -37 -99 -69 -182 -72 -185 -6 -8 -952 -6 -952 2 0 5 66 173 146 375
80 203 186 472 236 598 49 127 94 239 99 250 5 11 89 223 187 470 98 248 182
459 187 470 5 11 9 22 9 25 1 3 9 24 18 45 10 22 83 207 163 410 148 374 199
504 214 540 5 11 19 45 31 75 11 30 25 64 30 75 11 27 23 59 24 65 1 3 9 24
18 45 10 22 58 144 108 270 49 127 94 238 100 247 5 10 10 22 10 28 0 6 9 29
19 53 10 23 60 146 109 272 50 127 96 244 103 260 7 17 13 32 14 35 1 3 5 14
10 25 4 11 62 155 127 320 66 165 122 306 125 313 5 13 36 -60 261 -628z"/>
<path d="M5496 3133 c-4 -10 -59 -153 -122 -318 -64 -165 -139 -363 -169 -440
-57 -147 -285 -747 -285 -749 0 -5 1150 0 1154 5 4 3 -12 55 -35 115 -23 60
-52 136 -64 169 -13 33 -57 150 -100 260 -42 110 -104 272 -137 360 -33 88
-66 174 -73 190 -7 17 -47 119 -88 228 -53 143 -76 194 -81 180z m197 -958
c69 -181 130 -341 135 -355 l10 -25 -332 0 c-284 1 -331 3 -330 15 1 8 69 193
152 410 83 217 156 409 162 425 14 35 -3 73 203 -470z"/>
</g>
</svg>
