<?xml version="1.0" encoding="utf-8"?>
<!-- Generator: Adobe Illustrator 19.2.0, SVG Export Plug-In . SVG Version: 6.00 Build 0)  -->
<svg version="1.1" id="レイヤー_1" xmlns="http://www.w3.org/2000/svg" xmlns:xlink="http://www.w3.org/1999/xlink" x="0px"
	 y="0px" viewBox="0 0 100 100" style="enable-background:new 0 0 100 100;" xml:space="preserve">
<style type="text/css">
	.st0{fill:url(#SVGID_1_);}
	.st1{fill:#FFFFFF;}
</style>
<linearGradient id="SVGID_1_" gradientUnits="userSpaceOnUse" x1="50" y1="-2.244633e-09" x2="50" y2="100">
	<stop  offset="0" style="stop-color:#67328E"/>
	<stop  offset="1" style="stop-color:#F50059"/>
</linearGradient>
<polygon class="st0" points="0,100 0,0 100,0 "/>
<g>
	<path class="st1" d="M24.872419,62.084805l-1.941622,1.941624c-0.327305,0.327301-0.654612,0.327301-0.981918,0L7.888048,49.965595
		c-0.327306-0.327309-0.327306-0.654613,0-0.981918l1.754272-1.754272c0.328047-0.328049,0.654613-0.436901,0.982658-0.328049
		l13.59283,4.140942l0.093304-0.093304l-8.703231-8.703232c-0.327307-0.327305-0.327307-0.654613,0.00074-0.982658
		l1.941621-1.941624c0.327307-0.327305,0.654613-0.327305,0.981918,0l14.060831,14.060833
		c0.327309,0.327309,0.327309,0.654613,0,0.981918l-1.707619,1.707619c-0.343597,0.343597-0.748657,0.437645-1.21666,0.280655
		L16.28693,52.329308l-0.093306,0.093304l8.679535,8.679535C25.200466,61.429451,25.199726,61.7575,24.872419,62.084805z"/>
	<path class="st1" d="M43.798412,43.158813l-7.650223,7.650223c-0.327309,0.327305-0.654613,0.327305-0.981918,0
		L21.105438,36.748203c-0.327307-0.327305-0.327307-0.65461,0-0.981918l7.650223-7.650223
		c0.311756-0.311756,0.631657-0.304352,0.958963,0.022955l1.591358,1.59136c0.327307,0.327305,0.334711,0.647207,0.022957,0.958961
		l-4.889597,4.889599c-0.187349,0.187347-0.194756,0.36655-0.022957,0.538349l3.041281,3.041283
		c0.171799,0.171799,0.350262,0.163654,0.537611-0.023697l4.000244-4.000244c0.328045-0.328045,0.655354-0.328045,0.983398,0
		l1.590618,1.590618c0.327309,0.327309,0.327309,0.654613-0.00074,0.982662l-4.000244,4.00024
		c-0.187347,0.187351-0.194752,0.366554-0.022953,0.538353l3.251583,3.251587
		c0.171799,0.171799,0.351006,0.164391,0.538353-0.022957l4.889599-4.889599c0.311756-0.311752,0.631657-0.304348,0.958961,0.022957
		l1.591358,1.591358C44.102764,42.527157,44.110168,42.847057,43.798412,43.158813z"/>
	<path class="st1" d="M52.524601,34.432625l-3.275284,3.275284c-0.342857,0.342854-0.701263,0.373955-1.075962,0.094044
		L31.609592,26.244049c-0.373959-0.280655-0.373959-0.60796,0-0.981918l2.433323-2.433321
		c0.358406-0.358408,0.709408-0.382105,1.052265-0.070349L47.986744,32.93531l0.163654-0.163654l-9.358585-13.850525
		c-0.234001-0.327307-0.210304-0.630917,0.070351-0.91157l2.62067-2.620671c0.295464-0.295464,0.599812-0.334711,0.912308-0.117001
		l13.920135,9.334888l0.186611-0.186609L46.325039,11.575996c-0.327309-0.358407-0.311756-0.717555,0.04665-1.075963
		l2.433323-2.43332c0.374699-0.374699,0.710148-0.366554,1.006355,0.022955l11.509769,16.564503
		c0.280651,0.373957,0.265102,0.716814-0.046654,1.02857l-3.298977,3.298979c-0.327309,0.327305-0.67831,0.351002-1.052269,0.070349
		l-13.077431-8.866886l-0.094048,0.094046l8.843189,13.101128C52.86005,33.769867,52.836353,34.120869,52.524601,34.432625z"/>
</g>
</svg>
