<?xml version="1.0" encoding="utf-8"?>
<!-- Generator: Adobe Illustrator 19.2.0, SVG Export Plug-In . SVG Version: 6.00 Build 0)  -->
<svg version="1.1" id="レイヤー_1" xmlns="http://www.w3.org/2000/svg" xmlns:xlink="http://www.w3.org/1999/xlink" x="0px"
	 y="0px" viewBox="0 0 100 100" style="enable-background:new 0 0 100 100;" xml:space="preserve">
<style type="text/css">
	.st0{clip-path:url(#SVGID_2_);}
	.st1{clip-path:url(#SVGID_4_);fill:none;stroke:#181D28;stroke-width:5;stroke-miterlimit:10;}
	.st2{clip-path:url(#SVGID_6_);}
	.st3{clip-path:url(#SVGID_8_);fill:#181D28;}
	.st4{clip-path:url(#SVGID_10_);}
	.st5{clip-path:url(#SVGID_12_);fill:none;stroke:#181D28;stroke-miterlimit:10;}
	.st6{clip-path:url(#SVGID_14_);}
	.st7{clip-path:url(#SVGID_16_);fill:none;stroke:#181D28;stroke-width:5;stroke-miterlimit:10;}
	.st8{clip-path:url(#SVGID_18_);}
	.st9{clip-path:url(#SVGID_20_);fill:#181D28;}
	.st10{clip-path:url(#SVGID_22_);}
	.st11{clip-path:url(#SVGID_24_);fill:none;stroke:#181D28;stroke-miterlimit:10;}
	.st12{clip-path:url(#SVGID_26_);}
	.st13{clip-path:url(#SVGID_28_);fill:none;stroke:#181D28;stroke-width:5;stroke-miterlimit:10;}
	.st14{clip-path:url(#SVGID_30_);}
	.st15{clip-path:url(#SVGID_32_);fill:#181D28;}
	.st16{clip-path:url(#SVGID_34_);}
	.st17{clip-path:url(#SVGID_36_);fill:none;stroke:#181D28;stroke-miterlimit:10;}
	.st18{fill:#181D28;}
</style>
<g>
	<defs>
		<path id="SVGID_1_" d="M1044.045654-2226.024902c3.299927-3.299805,8.654419-3.295898,11.944458-0.005859
			c3.296753,3.296875,3.301514,8.637207-0.005859,11.94458l-0.070435,0.070312
			c-3.300049,3.300049-8.654419,3.296143-11.94458,0.005859c-3.296753-3.296631-3.301392-8.636963,0.005981-11.944336
			L1044.045654-2226.024902z"/>
	</defs>
	<clipPath id="SVGID_2_">
		<use xlink:href="#SVGID_1_"  style="overflow:visible;"/>
	</clipPath>
	<g class="st0">
		<defs>
			<rect id="SVGID_3_" x="-220" y="-2370" width="1300" height="4840"/>
		</defs>
		<clipPath id="SVGID_4_">
			<use xlink:href="#SVGID_3_"  style="overflow:visible;"/>
		</clipPath>
		<path class="st1" d="M1044.045654-2226.024902c3.299927-3.299805,8.654419-3.295898,11.944458-0.005859
			c3.296753,3.296875,3.301514,8.637207-0.005859,11.94458l-0.070435,0.070312
			c-3.300049,3.300049-8.654541,3.296143-11.94458,0.006104c-3.296753-3.296875-3.301392-8.637207,0.005981-11.94458
			L1044.045654-2226.024902z"/>
	</g>
</g>
<g>
	<defs>
		
			<rect id="SVGID_5_" x="1055.412231" y="-2216.110352" transform="matrix(0.707107 -0.707107 0.707107 0.707107 1874.325806 99.454552)" width="3.60606" height="6.651161"/>
	</defs>
	<clipPath id="SVGID_6_">
		<use xlink:href="#SVGID_5_"  style="overflow:visible;"/>
	</clipPath>
	<g class="st2">
		<defs>
			<rect id="SVGID_7_" x="-220" y="-2370" width="1300" height="4840"/>
		</defs>
		<clipPath id="SVGID_8_">
			<use xlink:href="#SVGID_7_"  style="overflow:visible;"/>
		</clipPath>
		
			<rect x="1055.412231" y="-2216.110352" transform="matrix(0.707107 -0.707107 0.707107 0.707107 1874.325806 99.454552)" class="st3" width="3.60606" height="6.651161"/>
	</g>
</g>
<g>
	<defs>
		
			<rect id="SVGID_9_" x="1055.412231" y="-2216.110352" transform="matrix(0.707107 -0.707107 0.707107 0.707107 1874.325806 99.454552)" width="3.60606" height="6.651161"/>
	</defs>
	<clipPath id="SVGID_10_">
		<use xlink:href="#SVGID_9_"  style="overflow:visible;"/>
	</clipPath>
	<g class="st4">
		<defs>
			<rect id="SVGID_11_" x="-220" y="-2370" width="1300" height="4840"/>
		</defs>
		<clipPath id="SVGID_12_">
			<use xlink:href="#SVGID_11_"  style="overflow:visible;"/>
		</clipPath>
		
			<rect x="1055.412231" y="-2216.110352" transform="matrix(0.707107 -0.707107 0.707107 0.707107 1874.326538 99.454308)" class="st5" width="3.606062" height="6.651165"/>
	</g>
</g>
<g>
	<defs>
		<path id="SVGID_13_" d="M856.045654-2138.024902c3.299988-3.299805,8.654419-3.295898,11.944458-0.005859
			c3.296753,3.296875,3.301514,8.637207-0.00592,11.94458l-0.070435,0.070312
			c-3.299988,3.300049-8.654419,3.296143-11.944458,0.005859c-3.296753-3.296631-3.301514-8.636963,0.00592-11.944336
			L856.045654-2138.024902z"/>
	</defs>
	<clipPath id="SVGID_14_">
		<use xlink:href="#SVGID_13_"  style="overflow:visible;"/>
	</clipPath>
	<g class="st6">
		<defs>
			<rect id="SVGID_15_" x="-408" y="-2282" width="1300" height="4840"/>
		</defs>
		<clipPath id="SVGID_16_">
			<use xlink:href="#SVGID_15_"  style="overflow:visible;"/>
		</clipPath>
		<path class="st7" d="M856.045593-2138.024902c3.300049-3.299805,8.65448-3.295898,11.944519-0.005859
			c3.296753,3.296875,3.301514,8.637207-0.00592,11.94458l-0.070435,0.070312
			c-3.299988,3.300049-8.654419,3.296143-11.944458,0.006104c-3.296753-3.296875-3.301514-8.637207,0.00592-11.94458
			L856.045593-2138.024902z"/>
	</g>
</g>
<g>
	<defs>
		
			<rect id="SVGID_17_" x="867.41217" y="-2128.110352" transform="matrix(0.707107 -0.707107 0.707107 0.707107 1757.036499 -7.706902)" width="3.60606" height="6.651161"/>
	</defs>
	<clipPath id="SVGID_18_">
		<use xlink:href="#SVGID_17_"  style="overflow:visible;"/>
	</clipPath>
	<g class="st8">
		<defs>
			<rect id="SVGID_19_" x="-408" y="-2282" width="1300" height="4840"/>
		</defs>
		<clipPath id="SVGID_20_">
			<use xlink:href="#SVGID_19_"  style="overflow:visible;"/>
		</clipPath>
		
			<rect x="867.41217" y="-2128.110352" transform="matrix(0.707107 -0.707107 0.707107 0.707107 1757.036499 -7.706902)" class="st9" width="3.60606" height="6.651161"/>
	</g>
</g>
<g>
	<defs>
		
			<rect id="SVGID_21_" x="867.41217" y="-2128.110352" transform="matrix(0.707107 -0.707107 0.707107 0.707107 1757.036499 -7.706902)" width="3.60606" height="6.651161"/>
	</defs>
	<clipPath id="SVGID_22_">
		<use xlink:href="#SVGID_21_"  style="overflow:visible;"/>
	</clipPath>
	<g class="st10">
		<defs>
			<rect id="SVGID_23_" x="-408" y="-2282" width="1300" height="4840"/>
		</defs>
		<clipPath id="SVGID_24_">
			<use xlink:href="#SVGID_23_"  style="overflow:visible;"/>
		</clipPath>
		
			<rect x="867.41217" y="-2128.110352" transform="matrix(0.707107 -0.707107 0.707107 0.707107 1757.037231 -7.70717)" class="st11" width="3.606062" height="6.651165"/>
	</g>
</g>
<g>
	<defs>
		<path id="SVGID_25_" d="M856.045654-2138.024902c3.299988-3.299805,8.654419-3.295898,11.944458-0.005859
			c3.296753,3.296875,3.301514,8.637207-0.00592,11.94458l-0.070435,0.070312
			c-3.299988,3.300049-8.654419,3.296143-11.944458,0.005859c-3.296753-3.296631-3.301514-8.636963,0.00592-11.944336
			L856.045654-2138.024902z"/>
	</defs>
	<clipPath id="SVGID_26_">
		<use xlink:href="#SVGID_25_"  style="overflow:visible;"/>
	</clipPath>
	<g class="st12">
		<defs>
			<rect id="SVGID_27_" x="-408" y="-2282" width="1300" height="4840"/>
		</defs>
		<clipPath id="SVGID_28_">
			<use xlink:href="#SVGID_27_"  style="overflow:visible;"/>
		</clipPath>
		<path class="st13" d="M856.045593-2138.024902c3.300049-3.299805,8.65448-3.295898,11.944519-0.005859
			c3.296753,3.296875,3.301514,8.637207-0.00592,11.94458l-0.070435,0.070312
			c-3.299988,3.300049-8.654419,3.296143-11.944458,0.006104c-3.296753-3.296875-3.301514-8.637207,0.00592-11.94458
			L856.045593-2138.024902z"/>
	</g>
</g>
<g>
	<defs>
		
			<rect id="SVGID_29_" x="867.41217" y="-2128.110352" transform="matrix(0.707107 -0.707107 0.707107 0.707107 1757.036499 -7.706902)" width="3.60606" height="6.651161"/>
	</defs>
	<clipPath id="SVGID_30_">
		<use xlink:href="#SVGID_29_"  style="overflow:visible;"/>
	</clipPath>
	<g class="st14">
		<defs>
			<rect id="SVGID_31_" x="-408" y="-2282" width="1300" height="4840"/>
		</defs>
		<clipPath id="SVGID_32_">
			<use xlink:href="#SVGID_31_"  style="overflow:visible;"/>
		</clipPath>
		
			<rect x="867.41217" y="-2128.110352" transform="matrix(0.707107 -0.707107 0.707107 0.707107 1757.036499 -7.706902)" class="st15" width="3.60606" height="6.651161"/>
	</g>
</g>
<g>
	<defs>
		
			<rect id="SVGID_33_" x="867.41217" y="-2128.110352" transform="matrix(0.707107 -0.707107 0.707107 0.707107 1757.036499 -7.706902)" width="3.60606" height="6.651161"/>
	</defs>
	<clipPath id="SVGID_34_">
		<use xlink:href="#SVGID_33_"  style="overflow:visible;"/>
	</clipPath>
	<g class="st16">
		<defs>
			<rect id="SVGID_35_" x="-408" y="-2282" width="1300" height="4840"/>
		</defs>
		<clipPath id="SVGID_36_">
			<use xlink:href="#SVGID_35_"  style="overflow:visible;"/>
		</clipPath>
		
			<rect x="867.41217" y="-2128.110352" transform="matrix(0.707107 -0.707107 0.707107 0.707107 1757.037231 -7.70717)" class="st17" width="3.606062" height="6.651165"/>
	</g>
</g>
<g>
	<path class="st18" d="M45.67083,22.570831c6.170273,0,11.971191,2.402817,16.33419,6.765808
		c9.006691,9.006683,9.006691,23.661652,0,32.668365c-4.363037,4.362976-10.163963,6.765839-16.33419,6.765839
		c-6.170189,0-11.971115-2.402863-16.33419-6.765839c-9.006691-9.006714-9.006691-23.661682,0-32.668335
		C33.699677,24.973648,39.500603,22.570831,45.67083,22.570831 M45.67083,10.570831
		c-8.982872,0-17.965752,3.426849-24.819458,10.280548c-13.70739,13.707367-13.70739,35.931488,0,49.638885
		c6.853706,6.853699,15.836586,10.280548,24.819458,10.280548s17.965752-3.426849,24.819458-10.280548
		c13.70739-13.707397,13.70739-35.931519,0-49.638885C63.636581,13.997681,54.653702,10.570831,45.67083,10.570831
		L45.67083,10.570831z"/>
	
		<rect x="66.711823" y="58.428272" transform="matrix(0.707107 -0.707107 0.707107 0.707107 -30.52566 73.695457)" class="st18" width="13.967279" height="30.534374"/>
</g>
</svg>
