<?xml version="1.0" encoding="utf-8"?>
<!-- Generator: Adobe Illustrator 19.2.0, SVG Export Plug-In . SVG Version: 6.00 Build 0)  -->
<svg version="1.1" id="レイヤー_1" xmlns="http://www.w3.org/2000/svg" xmlns:xlink="http://www.w3.org/1999/xlink" x="0px"
	 y="0px" viewBox="0 0 194 38" style="enable-background:new 0 0 194 38;" xml:space="preserve">
<style type="text/css">
	.st0{fill:#181D28;}
</style>
<g>
	<path class="st0" d="M93.376999,2.579864v12.582634h-7.679504V2.579864h-7.164368V35.72876h7.164368V21.340002h7.679504V35.72876
		h6.177879V2.579864H93.376999z M84.710739,34.741886h-5.190872V3.56674h5.190872V34.741886z"/>
	<polygon class="st0" points="0.606687,8.757993 6.467691,8.757993 6.467691,35.766762 12.64582,35.766762 12.64582,8.757993 
		18.506948,8.757993 18.506948,2.579864 0.606687,2.579864 	"/>
	<polygon class="st0" points="24.648329,2.579864 24.648329,8.757993 24.648329,16.177374 24.648329,22.355627 24.648329,29.588633 
		24.648329,35.766762 30.826456,35.766762 39.776337,35.766762 39.776337,29.588633 30.826456,29.588633 30.826456,22.355627 
		36.75621,22.355627 36.75621,16.177374 30.826456,16.177374 30.826456,8.757993 39.776337,8.757993 39.776337,2.579864 
		30.826456,2.579864 	"/>
	<path class="st0" d="M61.185101,8.278618c3.310879,0,6.251133,1.650876,8.113026,4.207253l4.903481-3.896627
		c-3.038376-3.869503-7.737-6.356004-13.016506-6.356004c-9.159256,0-16.584259,7.477005-16.584259,16.699636
		c0,9.223631,7.425003,16.700762,16.584259,16.700762c5.279507,0,9.978634-2.486504,13.016506-6.35663l-4.903481-3.896627
		c-1.861893,2.556377-4.802147,4.207754-8.113026,4.207754c-5.628376,0-10.191757-4.770128-10.191757-10.655258
		C50.993343,13.048871,55.556725,8.278618,61.185101,8.278618z"/>
	<path class="st0" d="M144.938034,35.547512h-11.540756V2.890614h10.553131c6.044632,0,9.653259,3.160752,9.653259,8.454882
		c0,3.709377-1.150482,5.367378-3.418137,6.983004c2.126511,1.493376,4.136398,3.592628,4.136398,7.451756
		C154.32193,33.088261,147.877533,35.547512,144.938034,35.547512z M134.384155,34.560635h10.553879
		c1.666122,0,8.397003-1.562248,8.397003-8.78038c0-3.705877-2.033875-5.551254-4.231628-6.99338l-0.222733-0.14625v-0.61775
		l0.22049-0.146626c2.431244-1.616001,3.515762-2.942627,3.515762-6.530754c0-4.745879-3.15889-7.46813-8.666519-7.46813h-9.566254
		V34.560635z M143.038177,29.686007h-3.052643v-8.685131h3.052643c1.49585,0,2.719482,0.451002,3.538742,1.304876
		c0.758606,0.790501,1.134109,1.870626,1.087112,3.125002c0.04512,1.201002-0.307495,2.227877-1.020248,2.970627
		C145.837402,29.241632,144.590408,29.686007,143.038177,29.686007z M140.972397,28.699131h2.065781
		c1.276978,0,2.277725-0.338999,2.8936-0.981001c0.526123-0.548624,0.783905-1.3325,0.745377-2.26725l-0.000748-0.020126
		l0.000748-0.02025c0.040878-0.987999-0.239868-1.8255-0.812241-2.421625c-0.628632-0.655127-1.605759-1.001251-2.826736-1.001251
		h-2.065781V28.699131z M142.130676,16.451248h-2.145142V8.752493h2.145142c3.068985,0,4.901474,1.421876,4.901474,3.803878
		C147.03215,14.994997,145.199661,16.451248,142.130676,16.451248z M140.972397,15.464373h1.158279
		c1.176971,0,3.914734-0.283501,3.914734-2.908002c0-2.451127-2.452759-2.817002-3.914734-2.817002h-1.158279V15.464373z"/>
	<path class="st0" d="M193.393311,35.72876h-16.115631V2.579864h16.115631v7.16488h-8.949997v5.407754h5.929123v7.165256h-5.929123
		v6.246128h8.949997V35.72876z M178.264557,34.741886h14.141876v-5.191254h-8.949997v-8.219631h5.929276v-5.191628h-5.929276
		V8.757868h8.949997V3.56674h-14.141876V34.741886z"/>
	<path class="st0" d="M174.42955,35.72876h-16.336884V2.579864h7.165634v25.984016h9.171249V35.72876z M159.079544,34.741886
		h14.363129v-5.191254h-9.171127V3.56674h-5.192001V34.741886z"/>
	<path class="st0" d="M130.672775,35.324387h-7.822762l-1.6175-4.237879h-8.883751l-1.61763,4.237879h-7.822754l13.882278-34.990776
		L130.672775,35.324387z M123.52977,34.337509h5.690369l-12.429482-31.32802l-12.429527,31.32802h5.690376l1.6175-4.237751
		h10.243263L123.52977,34.337509z M120.225517,25.682629h-6.870132l3.435272-9.001255L120.225517,25.682629z M114.787758,24.695879
		h4.005257l-2.002357-5.24688L114.787758,24.695879z"/>
</g>
</svg>
