<?xml version="1.0" encoding="utf-8"?>
<!-- Generator: Adobe Illustrator 19.2.0, SVG Export Plug-In . SVG Version: 6.00 Build 0)  -->
<svg version="1.1" id="レイヤー_1" xmlns="http://www.w3.org/2000/svg" xmlns:xlink="http://www.w3.org/1999/xlink" x="0px"
	 y="0px" viewBox="0 0 194 38" style="enable-background:new 0 0 194 38;" xml:space="preserve">
<style type="text/css">
	.st0{fill:#181D28;}
	.st1{fill:url(#SVGID_1_);}
</style>
<g>
	<polygon class="st0" points="93.376953,2.486668 93.376953,15.06931 85.697449,15.06931 85.697449,21.246799 93.376953,21.246799 
		93.376953,35.635532 99.554871,35.635532 99.554871,2.486668 	"/>
	<polygon class="st0" points="0.606689,8.664769 6.467651,8.664769 6.467651,35.673557 12.645813,35.673557 12.645813,8.664769 
		18.506897,8.664769 18.506897,2.486668 0.606689,2.486668 	"/>
	<polygon class="st0" points="24.648315,2.486668 24.648315,8.664769 24.648315,16.084141 24.648315,22.262424 24.648315,29.495457 
		24.648315,35.673557 30.826416,35.673557 39.776306,35.673557 39.776306,29.495457 30.826416,29.495457 30.826416,22.262424 
		36.756165,22.262424 36.756165,16.084141 30.826416,16.084141 30.826416,8.664769 39.776306,8.664769 39.776306,2.486668 
		30.826416,2.486668 	"/>
	<path class="st0" d="M61.185059,8.185399c3.310913,0,6.25116,1.650879,8.113037,4.207275l4.903503-3.896606
		c-3.038391-3.869507-7.737-6.356019-13.016541-6.356019c-9.159241,0-16.584229,7.47699-16.584229,16.699646
		c0,9.223633,7.424988,16.700745,16.584229,16.700745c5.279541,0,9.978638-2.486511,13.016541-6.356628l-4.903503-3.896606
		c-1.861877,2.556335-4.802124,4.207703-8.113037,4.207703c-5.628357,0-10.191711-4.770081-10.191711-10.655212
		C50.993347,12.955663,55.556702,8.185399,61.185059,8.185399z"/>
</g>
<linearGradient id="SVGID_1_" gradientUnits="userSpaceOnUse" x1="78.533081" y1="17.937927" x2="193.393311" y2="17.937927">
	<stop  offset="0" style="stop-color:#1E67BD"/>
	<stop  offset="1" style="stop-color:#943F94"/>
</linearGradient>
<path class="st1" d="M78.533081,2.486572H84.875v12.582642v6.17749v14.388794h-6.341919V2.486572z M154.321899,25.686951
	c0,7.308044-6.444397,9.767273-9.383911,9.767273h-11.54071V2.797363h10.553101c6.044617,0,9.653259,3.160706,9.653259,8.454834
	c0,3.709412-1.150452,5.367371-3.418152,6.983032C152.312012,19.728577,154.321899,21.82782,154.321899,25.686951z
	 M140.972351,15.371094h1.158325c1.176941,0,3.914734-0.283508,3.914734-2.90802c0-2.451111-2.452759-2.816956-3.914734-2.816956
	h-1.158325V15.371094z M146.676392,25.337463l0.000732-0.020264c0.040894-0.987976-0.239868-1.8255-0.812256-2.421631
	c-0.628601-0.65509-1.605713-1.001221-2.826721-1.001221h-2.065796v6.711487h2.065796
	c1.276978,0,2.27771-0.338989,2.893616-0.980957c0.526123-0.548645,0.783875-1.33252,0.745361-2.267273L146.676392,25.337463z
	 M193.393311,9.651489V2.486572h-16.115662v33.148926h16.115662v-7.164917h-8.950012v-6.246094h5.929138v-7.165283h-5.929138
	V9.651489H193.393311z M165.25824,2.486572h-7.165588v33.148926h16.336853v-7.164917h-9.171265V2.486572z M116.790649,0.240356
	l13.88208,34.990723h-7.822754l-1.617493-4.237854h-8.883728l-1.617676,4.237854h-7.822754L116.790649,0.240356z
	 M118.792969,24.6026l-2.002319-5.246887l-2.00293,5.246887H118.792969z"/>
</svg>
